HIERARCHY
ROOT tri_prism_large
{
	OFFSET 0.000000 0.000000 0.000000
	CHANNELS 6 Xposition Yposition Zposition Yrotation Xrotation Zrotation
	End Site
	{
		OFFSET 0.000000 0.000000 0.000000
	}
}
MOTION
Frames: 100
Frame Time: 0.008333334
-1.969799 2.446167 3.963812 140.970100 -37.503110 -30.675020 
-1.987201 2.437253 3.957409 140.166300 -38.621550 -30.874600 
-2.004084 2.428866 3.948338 139.285600 -39.463840 -30.911620 
-2.018416 2.422817 3.936570 137.959300 -40.283360 -30.699220 
-2.028916 2.420915 3.922459 136.089200 -40.797000 -29.773900 
-2.037015 2.423265 3.905201 133.279200 -41.099880 -28.308780 
-2.045115 2.425614 3.887944 130.448100 -41.347960 -26.819490 
-2.051638 2.430082 3.867442 126.852900 -41.360470 -24.714660 
-2.059055 2.435330 3.846864 122.938500 -41.474210 -22.449160 
-2.068372 2.439762 3.825627 118.931900 -41.311220 -20.014620 
-2.081329 2.441655 3.803450 114.824300 -41.279630 -17.725560 
-2.098627 2.440227 3.778994 110.731400 -41.304780 -15.485720 
-2.119844 2.436849 3.755193 106.768100 -41.437810 -13.352080 
-2.145437 2.430818 3.729791 102.578100 -41.681640 -11.174530 
-2.174503 2.422975 3.706306 98.244560 -41.853700 -8.891052 
-2.205919 2.413155 3.683647 93.628310 -42.105010 -6.254761 
-2.236709 2.403210 3.659992 88.875650 -42.194090 -3.575592 
-2.267039 2.393254 3.636314 83.904920 -41.860690 -0.507629 
-2.296211 2.383362 3.612487 78.712920 -41.351590 2.539302 
-2.322467 2.377301 3.587006 73.529280 -40.379270 5.520001 
-2.346107 2.373016 3.563308 68.182340 -38.906800 8.527141 
-2.365608 2.370363 3.540753 62.904170 -36.818600 11.355000 
-2.382979 2.368661 3.522430 57.711260 -34.363220 14.220390 
-2.400095 2.366143 3.509180 52.555700 -31.484380 16.940980 
-2.416810 2.362158 3.500582 47.603920 -28.186100 19.716710 
-2.434076 2.358285 3.494046 43.163410 -24.530550 21.935010 
-2.450304 2.354481 3.484676 38.871120 -20.546360 23.839530 
-2.465058 2.351113 3.474374 34.721580 -16.752440 25.096130 
-2.481316 2.349080 3.462041 30.863180 -12.846980 25.881540 
-2.498436 2.346994 3.445693 27.256910 -9.235046 26.495900 
-2.516651 2.345275 3.425376 23.505410 -5.893799 26.734050 
-2.532608 2.346373 3.401713 20.015360 -2.621643 26.732190 
-2.545527 2.350151 3.377689 16.640980 0.452612 26.404060 
-2.554097 2.356930 3.355327 13.352930 3.519615 25.806210 
-2.559842 2.365112 3.339931 10.297250 6.500297 24.895210 
-2.562160 2.373268 3.330312 7.457897 9.562845 23.687680 
-2.564009 2.381395 3.329185 4.755515 12.410960 22.461170 
-2.564152 2.387241 3.331810 2.278878 15.405900 21.207980 
-2.567029 2.391154 3.338603 -0.298401 18.326130 19.696320 
-2.570006 2.392844 3.346251 -2.874847 20.939070 18.219900 
-2.575782 2.391803 3.356051 -5.239777 23.581360 16.933830 
-2.582852 2.390733 3.366720 -7.661407 25.810750 15.604160 
-2.588986 2.390112 3.376616 -9.694366 27.874250 14.266500 
-2.595071 2.391483 3.385633 -11.920100 29.615900 12.842940 
-2.599337 2.393371 3.396142 -13.736820 31.175530 11.570040 
-2.603616 2.395586 3.406991 -15.620360 32.298440 10.222510 
-2.606822 2.398092 3.420062 -17.313080 33.587410 8.869509 
-2.609042 2.400436 3.435200 -18.835720 34.576570 7.623523 
-2.610822 2.403031 3.450902 -20.451020 35.648800 6.429691 
-2.611857 2.405500 3.467691 -22.096500 36.479920 5.031599 
-2.613715 2.407348 3.485612 -23.583280 37.212900 3.663136 
-2.615379 2.407670 3.503871 -24.957520 38.085610 2.640787 
-2.617459 2.406725 3.523921 -26.249150 38.853890 1.492533 
-2.620155 2.403830 3.545398 -27.443540 39.678170 0.375355 
-2.622808 2.399302 3.567582 -28.688870 40.561460 -0.824677 
-2.626197 2.394905 3.590015 -29.796840 41.176660 -1.834930 
-2.628113 2.389863 3.611029 -30.808290 41.687070 -2.657867 
-2.630718 2.385570 3.630940 -31.792360 42.133920 -3.574524 
-2.632466 2.383436 3.647257 -32.702580 42.446850 -4.308563 
-2.633698 2.383021 3.661669 -33.483250 42.547260 -4.892609 
-2.631435 2.385228 3.672080 -34.188660 42.480670 -5.498993 
-2.629713 2.388643 3.681682 -34.838650 42.398100 -6.022766 
-2.625822 2.392452 3.690126 -35.341460 42.170380 -6.579285 
-2.621026 2.396070 3.698509 -35.823150 42.104440 -6.944275 
-2.616872 2.399385 3.706937 -36.073060 42.001700 -7.290619 
-2.612184 2.401667 3.714931 -36.193700 42.080550 -7.610443 
-2.607252 2.402904 3.723675 -36.096800 42.096950 -7.774017 
-2.603496 2.403079 3.732543 -35.953860 41.947430 -7.820343 
-2.600555 2.402591 3.740116 -35.642210 42.096260 -7.757324 
-2.598410 2.400757 3.747610 -35.404880 42.128410 -7.659393 
-2.597322 2.396488 3.755316 -35.004060 42.352150 -7.467102 
-2.596010 2.391421 3.762317 -34.546330 42.469910 -7.062408 
-2.595607 2.384645 3.769714 -34.199950 42.532200 -6.764526 
-2.594124 2.377182 3.776546 -33.650910 42.644330 -6.335449 
-2.596715 2.367766 3.783983 -33.449920 42.795220 -6.061096 
-2.599133 2.353781 3.792278 -32.851200 43.100890 -5.480652 
-2.598943 2.340848 3.801476 -32.301970 43.448750 -5.144104 
-2.595857 2.331012 3.810447 -31.799530 43.387470 -4.830414 
-2.590431 2.324655 3.815933 -31.437470 43.163940 -4.656616 
-2.584717 2.319501 3.821007 -30.836730 42.928590 -4.398926 
-2.577740 2.316784 3.824041 -30.662350 42.702010 -4.259125 
-2.567802 2.315150 3.827458 -30.431640 42.239650 -4.293182 
-2.557708 2.313785 3.832539 -30.403020 41.574620 -4.499359 
-2.548335 2.312441 3.837798 -30.201900 41.391870 -4.460876 
-2.540769 2.312142 3.842907 -30.524200 41.008300 -4.699066 
-2.534235 2.313600 3.844752 -30.687990 40.616260 -4.705383 
-2.528507 2.316288 3.844163 -31.026890 39.954960 -4.759613 
-2.524978 2.320624 3.840531 -31.432920 39.149380 -4.591187 
-2.522958 2.325805 3.835990 -31.673430 38.346740 -4.152222 
-2.521916 2.332131 3.831001 -31.925540 37.463560 -3.678925 
-2.521480 2.339204 3.824346 -32.182860 36.375370 -3.114197 
-2.520888 2.347145 3.819139 -32.389100 35.289250 -2.558533 
-2.518245 2.356680 3.814177 -32.548680 34.205360 -2.057129 
-2.513657 2.367622 3.810611 -32.820160 32.879270 -1.832581 
-2.505742 2.380395 3.806416 -33.062770 31.501060 -1.786285 
-2.496702 2.393126 3.801781 -33.537410 29.952730 -1.753082 
-2.488307 2.405213 3.796930 -34.024510 28.600530 -1.611603 
-2.480551 2.416301 3.790412 -34.567200 27.329790 -1.197357 
-2.475502 2.427220 3.782723 -35.222350 25.985520 -0.709290 
-2.472046 2.436747 3.774180 -35.878630 24.879020 0.037419 
